<svg width="632" height="840" xmlns="http://www.w3.org/2000/svg">
  <path fill="#F4F3F2" d="M576 30h-35l17.5-30zM594 420h-35l17.5 30z"/>
  <path fill="#F1F0EF" d="M594 300h-35l17.5 30zM596 720h-35l17.5 30z"/>
  <path fill="#F1F0EF" d="M611.5 390h-35l17.5 30zM611.5 270h-35l17.5 30zM613.5 690h-35l17.5 30zM611.5 330h-35l17.5 30zM613.5 750h-35l17.5 30z"/>
  <path fill="#F4F3F2" d="M612 450h-35l17.5-30z"/>
  <path fill="#F6F5F4" d="M612 330h-35l17.5-30zM614 750h-35l17.5-30z"/>
  <path fill="#F1F0EF" d="M612 390h-35l17.5-30z"/>
  <path fill="#F6F5F4" d="M612 270h-35l17.5-30zM614 690h-35l17.5-30z"/>
  <path fill="#F4F3F2" d="M629.5 420h-35l17.5-30z"/>
  <path fill="#F1F0EF" d="M629.5 300h-35l17.5-30zM631.5 720h-35l17.5-30zM629.5 360h-35l17.5-30zM631.5 780h-35l17.5-30z"/>
  <path fill="#F1F0EF" d="M331.5 270h-35l17.5 30zM333.5 690h-35l17.5 30z"/>
  <path fill="#F6F5F4" d="M332 330h-35l17.5-30zM334 750h-35l17.5-30z"/>
  <path fill="#F1F0EF" d="M349.5 420h-35l17.5-30z"/>
  <path fill="#F6F5F4" d="M349.5 360h-35l17.5-30zM351.5 780h-35l17.5-30z"/>
  <path fill="#F4F3F2" d="M454 420h-35l17.5 30z"/>
  <path fill="#F6F5F4" d="M454 240h-35l17.5 30zM456 660h-35l17.5 30z"/>
  <path fill="#F1F0EF" d="M471.5 330h-35l17.5 30zM473.5 750h-35l17.5 30z"/>
  <path fill="#F4F3F2" d="M472 450h-35l17.5-30z"/>
  <path fill="#F4F3F2" d="M472 390h-35l17.5-30z"/>
  <path fill="#F6F5F4" d="M489.5 300h-35l17.5-30zM491.5 720h-35l17.5-30z"/>
  <path fill="#F6F5F4" d="M174 360h-35l17.5 30z"/>
  <path fill="#F6F5F4" d="M194 750h-35l17.5-30z"/>
  <path fill="#F6F5F4" d="M209.5 300h-35l17.5-30z"/>
  <path fill="#F1F0EF" d="M524 420h-35l17.5 30z"/>
  <path fill="#F6F5F4" d="M524 300h-35l17.5 30zM526 720h-35l17.5 30zM524 360h-35l17.5 30z"/>
  <path fill="#F4F3F2" d="M524 240h-35l17.5 30zM526 660h-35l17.5 30z"/>
  <path fill="#F6F5F4" d="M541.5 270h-35l17.5 30zM543.5 690h-35l17.5 30z"/>
  <path fill="#F1F0EF" d="M542 390h-35l17.5-30z"/>
  <path fill="#F4F3F2" d="M559.5 420h-35l17.5-30z"/>
  <path fill="#F6F5F4" d="M244 420h-35l17.5 30z"/>
  <path fill="#F6F5F4" d="M244 240h-35l17.5 30zM246 660h-35l17.5 30z"/>
  <path fill="#F6F5F4" d="M264 690h-35l17.5-30z"/>
  <path fill="#F4F3F2" d="M279.5 420h-35l17.5-30z"/>
  <path fill="#F6F5F4" d="M401.5 390h-35l17.5 30z"/>
  <path fill="#F6F5F4" d="M402 330h-35l17.5-30zM404 750h-35l17.5-30zM402 390h-35l17.5-30z"/>
  <path fill="#F4F3F2" d="M419.5 420h-35l17.5-30z"/>
  <path fill="#F4F3F2" d="M421.5 720h-35l17.5-30z"/>
  <path fill="#F6F5F4" d="M104 240H69l17.5 30z"/>
  <path fill="#F6F5F4" d="M122 390H87l17.5-30z"/>
  <path fill="#F1F0EF" d="M559 420h-35l17.5 30z"/>
  <path fill="#F4F3F2" d="M559 300h-35l17.5 30z"/>
  <path fill="#F1F0EF" d="M561 720h-35l17.5 30z"/>
  <path fill="#F1F0EF" d="M559 240h-35l17.5 30zM561 660h-35l17.5 30z"/>
  <path fill="#F4F3F2" d="M576.5 270h-35l17.5 30zM578.5 690h-35l17.5 30zM576.5 330h-35l17.5 30zM578.5 750h-35l17.5 30z"/>
  <path fill="#F1F0EF" d="M577 450h-35l17.5-30z"/>
  <path fill="#F6F5F4" d="M577 390h-35l17.5-30zM577 270h-35l17.5-30zM579 690h-35l17.5-30zM594.5 420h-35l17.5-30z"/>
  <path fill="#F4F3F2" d="M594.5 300h-35l17.5-30zM596.5 720h-35l17.5-30zM594.5 360h-35l17.5-30zM596.5 780h-35l17.5-30z"/>
  <path fill="#F6F5F4" d="M279 240h-35l17.5 30zM281 660h-35l17.5 30z"/>
  <path fill="#F1F0EF" d="M296.5 330h-35l17.5 30zM298.5 750h-35l17.5 30z"/>
  <path fill="#F1F0EF" d="M314.5 300h-35l17.5-30zM316.5 720h-35l17.5-30z"/>
  <path fill="#F1F0EF" d="M419 420h-35l17.5 30z"/>
  <path fill="#F6F5F4" d="M419 240h-35l17.5 30zM421 660h-35l17.5 30z"/>
  <path fill="#F4F3F2" d="M436.5 390h-35l17.5 30z"/>
  <path fill="#F1F0EF" d="M436.5 270h-35l17.5 30zM438.5 690h-35l17.5 30z"/>
  <path fill="#F6F5F4" d="M437 390h-35l17.5-30zM437 270h-35l17.5-30zM439 690h-35l17.5-30z"/>
  <path fill="#F1F0EF" d="M454.5 360h-35l17.5-30zM456.5 780h-35l17.5-30z"/>
  <path fill="#F6F5F4" d="M141 660h-35l17.5 30z"/>
  <path fill="#F4F3F2" d="M489 420h-35l17.5 30z"/>
  <path fill="#F6F5F4" d="M489 360h-35l17.5 30z"/>
  <path fill="#F4F3F2" d="M489 240h-35l17.5 30zM491 660h-35l17.5 30zM506.5 390h-35l17.5 30z"/>
  <path fill="#F4F3F2" d="M506.5 330h-35l17.5 30zM508.5 750h-35l17.5 30z"/>
  <path fill="#F1F0EF" d="M507 330h-35l17.5-30z"/>
  <path fill="#F6F5F4" d="M509 750h-35l17.5-30z"/>
  <path fill="#F6F5F4" d="M524.5 360h-35l17.5-30zM526.5 780h-35l17.5-30z"/>
  <path fill="#F4F3F2" d="M209 240h-35l17.5 30z"/>
  <path fill="#F6F5F4" d="M226.5 330h-35l17.5 30z"/>
  <path fill="#F4F3F2" d="M246.5 780h-35l17.5-30z"/>
  <path fill="#F4F3F2" d="M349 360h-35l17.5 30z"/>
  <path fill="#F1F0EF" d="M349 240h-35l17.5 30zM351 660h-35l17.5 30zM366.5 390h-35l17.5 30z"/>
  <path fill="#F6F5F4" d="M367 450h-35l17.5-30zM367 330h-35l17.5-30zM369 750h-35l17.5-30z"/>
  <path fill="#F4F3F2" d="M367 390h-35l17.5-30z"/>
  <path fill="#F6F5F4" d="M367 270h-35l17.5-30zM369 690h-35l17.5-30z"/>
  <path fill="#F1F0EF" d="M576 150h-35l17.5-30zM578 570h-35l17.5-30z"/>
  <path fill="#F1F0EF" d="M593.5 60h-35L576 30zM595.5 480h-35l17.5-30zM593.5 180h-35l17.5-30zM595.5 600h-35l17.5-30zM593.5 120h-35L576 90zM595.5 540h-35l17.5-30zM593.5 240h-35l17.5-30zM595.5 660h-35l17.5-30z"/>
  <path fill="#F4F3F2" d="M594 0h-35l17.5 30z"/>
  <path fill="#F6F5F4" d="M594 120h-35l17.5 30zM596 540h-35l17.5 30z"/>
  <path fill="#F1F0EF" d="M594 60h-35l17.5 30zM596 480h-35l17.5 30z"/>
  <path fill="#F6F5F4" d="M594 180h-35l17.5 30zM596 600h-35l17.5 30z"/>
  <path fill="#F1F0EF" d="M611.5 30h-35L594 60zM613.5 450h-35l17.5 30zM611.5 150h-35l17.5 30zM613.5 570h-35l17.5 30zM611.5 90h-35l17.5 30zM613.5 510h-35l17.5 30zM611.5 210h-35l17.5 30zM613.5 630h-35l17.5 30z"/>
  <path fill="#F1F0EF" d="M313.5 180h-35l17.5-30zM315.5 600h-35l17.5-30z"/>
  <path fill="#F6F5F4" d="M313.5 240h-35l17.5-30zM315.5 660h-35l17.5-30z"/>
  <path fill="#F4F3F2" d="M314 180h-35l17.5 30z"/>
  <path fill="#F1F0EF" d="M331.5 30h-35L314 60zM333.5 450h-35l17.5 30z"/>
  <path fill="#F6F5F4" d="M331.5 90h-35l17.5 30zM333.5 510h-35l17.5 30zM331.5 210h-35l17.5 30zM333.5 630h-35l17.5 30z"/>
  <path fill="#F4F3F2" d="M436 30h-35l17.5-30z"/>
  <path fill="#F6F5F4" d="M436 210h-35l17.5-30zM438 630h-35l17.5-30z"/>
  <path fill="#F1F0EF" d="M453.5 120h-35L436 90zM455.5 540h-35l17.5-30z"/>
  <path fill="#F4F3F2" d="M454 0h-35l17.5 30z"/>
  <path fill="#F4F3F2" d="M454 60h-35l17.5 30zM456 480h-35l17.5 30z"/>
  <path fill="#F6F5F4" d="M471.5 150h-35l17.5 30zM473.5 570h-35l17.5 30z"/>
  <path fill="#F6F5F4" d="M158 630h-35l17.5-30z"/>
  <path fill="#F6F5F4" d="M175.5 540h-35l17.5-30z"/>
  <path fill="#F6F5F4" d="M191.5 30h-35L174 60zM193.5 450h-35l17.5 30zM191.5 150h-35l17.5 30z"/>
  <path fill="#F6F5F4" d="M193.5 510h-35l17.5 30z"/>
  <path fill="#F1F0EF" d="M506 30h-35l17.5-30z"/>
  <path fill="#F6F5F4" d="M506 150h-35l17.5-30zM508 570h-35l17.5-30zM506 90h-35l17.5-30zM508 510h-35l17.5-30z"/>
  <path fill="#F4F3F2" d="M506 210h-35l17.5-30zM508 630h-35l17.5-30z"/>
  <path fill="#F6F5F4" d="M523.5 180h-35l17.5-30zM525.5 600h-35l17.5-30z"/>
  <path fill="#F1F0EF" d="M523.5 240h-35l17.5-30zM525.5 660h-35l17.5-30z"/>
  <path fill="#F1F0EF" d="M524 60h-35l17.5 30zM526 480h-35l17.5 30z"/>
  <path fill="#F4F3F2" d="M541.5 30h-35L524 60zM543.5 450h-35l17.5 30z"/>
  <path fill="#F4F3F2" d="M541.5 210h-35l17.5 30zM543.5 630h-35l17.5 30z"/>
  <path fill="#F6F5F4" d="M226 210h-35l17.5-30zM228 630h-35l17.5-30z"/>
  <path fill="#F6F5F4" d="M246 540h-35l17.5 30z"/>
  <path fill="#F4F3F2" d="M263.5 450h-35l17.5 30z"/>
  <path fill="#F6F5F4" d="M383.5 60h-35L366 30zM385.5 480h-35l17.5-30z"/>
  <path fill="#F6F5F4" d="M384 120h-35l17.5 30zM386 540h-35l17.5 30zM384 60h-35l17.5 30zM386 480h-35l17.5 30z"/>
  <path fill="#F4F3F2" d="M401.5 30h-35L384 60zM403.5 450h-35l17.5 30z"/>
  <path fill="#F6F5F4" d="M103.5 240h-35L86 210z"/>
  <path fill="#F6F5F4" d="M123.5 570h-35l17.5 30z"/>
  <path fill="#F1F0EF" d="M541 30h-35l17.5-30zM541 150h-35l17.5-30z"/>
  <path fill="#F4F3F2" d="M543 570h-35l17.5-30z"/>
  <path fill="#F1F0EF" d="M541 210h-35l17.5-30zM543 630h-35l17.5-30zM558.5 60h-35L541 30z"/>
  <path fill="#F4F3F2" d="M558.5 180h-35l17.5-30zM560.5 600h-35l17.5-30zM558.5 120h-35L541 90z"/>
  <path fill="#F1F0EF" d="M560.5 540h-35l17.5-30z"/>
  <path fill="#F6F5F4" d="M559 0h-35l17.5 30z"/>
  <path fill="#F6F5F4" d="M559 60h-35l17.5 30zM561 480h-35l17.5 30z"/>
  <path fill="#F6F5F4" d="M576.5 30h-35L559 60zM578.5 450h-35l17.5 30z"/>
  <path fill="#F1F0EF" d="M576.5 150h-35l17.5 30zM578.5 570h-35l17.5 30z"/>
  <path fill="#F4F3F2" d="M576.5 90h-35l17.5 30zM578.5 510h-35l17.5 30z"/>
  <path fill="#F4F3F2" d="M261 150h-35l17.5-30z"/>
  <path fill="#F6F5F4" d="M261 210h-35l17.5-30zM263 630h-35l17.5-30z"/>
  <path fill="#F1F0EF" d="M278.5 120h-35L261 90zM280.5 540h-35l17.5-30z"/>
  <path fill="#F1F0EF" d="M296.5 150h-35l17.5 30zM298.5 570h-35l17.5 30z"/>
  <path fill="#F1F0EF" d="M401 30h-35l17.5-30z"/>
  <path fill="#F6F5F4" d="M401 210h-35l17.5-30zM403 630h-35l17.5-30z"/>
  <path fill="#F4F3F2" d="M418.5 60h-35L401 30zM420.5 480h-35l17.5-30z"/>
  <path fill="#F1F0EF" d="M418.5 180h-35l17.5-30zM420.5 600h-35l17.5-30z"/>
  <path fill="#F6F5F4" d="M419 60h-35l17.5 30zM421 480h-35l17.5 30zM419 180h-35l17.5 30zM421 600h-35l17.5 30z"/>
  <path fill="#F1F0EF" d="M436.5 90h-35l17.5 30zM438.5 510h-35l17.5 30z"/>
  <path fill="#F6F5F4" d="M141 480h-35l17.5 30z"/>
  <path fill="#F4F3F2" d="M471 30h-35l17.5-30z"/>
  <path fill="#F4F3F2" d="M471 210h-35l17.5-30zM473 630h-35l17.5-30zM488.5 60h-35L471 30zM490.5 480h-35l17.5-30z"/>
  <path fill="#F4F3F2" d="M488.5 120h-35L471 90zM490.5 540h-35l17.5-30zM488.5 240h-35l17.5-30zM490.5 660h-35l17.5-30z"/>
  <path fill="#F6F5F4" d="M489 120h-35l17.5 30zM491 540h-35l17.5 30z"/>
  <path fill="#F1F0EF" d="M508.5 570h-35l17.5 30z"/>
  <path fill="#F6F5F4" d="M506.5 90h-35l17.5 30zM508.5 510h-35l17.5 30z"/>
  <path fill="#F6F5F4" d="M210.5 600h-35l17.5-30z"/>
  <path fill="#F6F5F4" d="M208.5 240h-35l17.5-30zM210.5 660h-35l17.5-30z"/>
  <path fill="#F6F5F4" d="M211 600h-35l17.5 30z"/>
  <path fill="#F6F5F4" d="M226.5 90h-35l17.5 30z"/>
  <path fill="#F1F0EF" d="M331 210h-35l17.5-30zM333 630h-35l17.5-30zM348.5 60h-35L331 30zM350.5 480h-35l17.5-30z"/>
  <path fill="#F1F0EF" d="M348.5 240h-35l17.5-30zM350.5 660h-35l17.5-30z"/>
  <path fill="#F6F5F4" d="M349 0h-35l17.5 30z"/>
  <path fill="#F4F3F2" d="M349 120h-35l17.5 30z"/>
  <path fill="#F6F5F4" d="M351 540h-35l17.5 30z"/>
  <path fill="#F6F5F4" d="M349 180h-35l17.5 30zM351 600h-35l17.5 30z"/>
  <path fill="#F1F0EF" d="M614 810h-35l17.5-30z"/>
  <path fill="#F4F3F2" d="M474 810h-35l17.5-30z"/>
  <path fill="#F6F5F4" d="M526 780h-35l17.5 30z"/>
  <path fill="#F1F0EF" d="M544 810h-35l17.5-30z"/>
  <path fill="#F6F5F4" d="M404 810h-35l17.5-30z"/>
  <path fill="#F6F5F4" d="M579 810h-35l17.5-30z"/>
  <path fill="#F6F5F4" d="M439 810h-35l17.5-30z"/>
  <path fill="#F6F5F4" d="M491 780h-35l17.5 30z"/>
  <path fill="#F6F5F4" d="M211 780h-35l17.5 30z"/>
  <path fill="#F4F3F2" d="M369 810h-35l17.5-30z"/>
  <path fill="#F1F0EF" d="M613.5 810h-35l17.5 30z"/>
  <path fill="#F4F3F2" d="M631.5 840h-35l17.5-30z"/>
  <path fill="#F1F0EF" d="M351.5 840h-35l17.5-30z"/>
  <path fill="#F4F3F2" d="M561.5 840h-35l17.5-30z"/>
  <path fill="#F4F3F2" d="M281.5 840h-35l17.5-30z"/>
  <path fill="#F6F5F4" d="M403.5 810h-35l17.5 30z"/>
  <path fill="#F4F3F2" d="M421.5 840h-35l17.5-30z"/>
  <path fill="#F6F5F4" d="M596.5 840h-35l17.5-30z"/>
  <path fill="#F4F3F2" d="M438.5 810h-35l17.5 30z"/>
  <path fill="#F4F3F2" d="M508.5 810h-35l17.5 30z"/>
  <path fill="#F1F0EF" d="M368.5 810h-35l17.5 30z"/>
</svg>
